<?xml version="1.0" encoding="UTF-8" standalone="no"?>
<!-- Created with Inkscape (http://www.inkscape.org/) -->

<svg
   xmlns:dc="http://purl.org/dc/elements/1.1/"
   xmlns:cc="http://creativecommons.org/ns#"
   xmlns:rdf="http://www.w3.org/1999/02/22-rdf-syntax-ns#"
   xmlns:svg="http://www.w3.org/2000/svg"
   xmlns="http://www.w3.org/2000/svg"
   xmlns:sodipodi="http://sodipodi.sourceforge.net/DTD/sodipodi-0.dtd"
   xmlns:inkscape="http://www.inkscape.org/namespaces/inkscape"
   width="210mm"
   height="297mm"
   viewBox="0 0 744.09448819 1052.3622047"
   id="svg2"
   version="1.1"
   inkscape:version="0.91 r13725"
   sodipodi:docname="logo.svg">
  <defs
     id="defs4" />
  <sodipodi:namedview
     id="base"
     pagecolor="#ffffff"
     bordercolor="#666666"
     borderopacity="1.0"
     inkscape:pageopacity="0.0"
     inkscape:pageshadow="2"
     inkscape:zoom="0.49497475"
     inkscape:cx="478.90772"
     inkscape:cy="1112.756"
     inkscape:document-units="px"
     inkscape:current-layer="layer1"
     showgrid="false"
     inkscape:window-width="1366"
     inkscape:window-height="747"
     inkscape:window-x="0"
     inkscape:window-y="0"
     inkscape:window-maximized="0" />
  <metadata
     id="metadata7">
    <rdf:RDF>
      <cc:Work
         rdf:about="">
        <dc:format>image/svg+xml</dc:format>
        <dc:type
           rdf:resource="http://purl.org/dc/dcmitype/StillImage" />
        <dc:title></dc:title>
      </cc:Work>
    </rdf:RDF>
  </metadata>
  <g
     inkscape:label="Calque 1"
     inkscape:groupmode="layer"
     id="layer1">
    <g
       id="g4277"
       transform="translate(-800.04082,-638.41641)"
       inkscape:export-xdpi="193"
       inkscape:export-ydpi="193">
      <path
         sodipodi:nodetypes="sssscccsssscccscssscccsscccccccssscccsssccccccssscccsssssccccc"
         inkscape:connector-curvature="0"
         id="path4208"
         d="m 946.69721,577.16482 c 0,-2.98377 -1.11726,-9.8744 -2.4828,-15.3125 -6.38741,-25.4371 -22.73801,-46.21562 -45.0172,-57.20831 -11.107,-5.48027 -24.88303,-9.48236 -32.8125,-9.53244 l -3.4375,-0.0217 0,-12.6813 0,-12.68129 8.53033,0.71515 c 12.30913,1.03195 23.02715,4.08519 35.84467,10.21105 13.17236,6.29545 20.88594,11.66224 31.04145,21.59738 19.21339,18.79645 30.9765,43.80747 32.93469,70.02651 l 0.77018,10.3125 -12.68566,0 -12.68566,0 z m 41.25,-0.0362 c 0,-8.03457 -3.24213,-25.16195 -6.65633,-35.16374 -6.77545,-19.8485 -16.59441,-35.39922 -31.97776,-50.64455 -21.40455,-21.21253 -45.61575,-33.15633 -74.12103,-36.5652 l -12.24488,-1.46429 0,-12.60058 0,-12.6006 10.3125,0.97106 c 52.39317,4.93354 97.98924,35.45365 122.54075,82.02369 10.16924,19.28936 17.12854,45.40129 17.14174,64.31801 l 0,7.1875 -12.5,0 -12.50001,0 0,-5.46126 z m 41.24259,-1.1012 c 0,-3.60937 -0.8189,-11.90625 -1.8108,-18.4375 -9.7,-63.86966 -54.2687,-116.39522 -116.11764,-136.84814 -13.63576,-4.50923 -32.53042,-8.15186 -42.28442,-8.15186 l -6.02973,0 0,-12.68996 0,-12.68996 12.8125,0.81044 c 23.5486,1.48954 46.51533,7.9113 70.3125,19.66019 62.04399,30.6317 104.17009,93.74184 107.78279,161.47179 l 0.7167,13.4375 -12.6872,0 -12.6873,0 -0.01,-6.5625 z m 41.2345,-1.25 c -0.03,-10.21859 -2.9814,-30.72055 -6.293,-43.71435 -15.2568,-59.86193 -56.6464,-110.633 -113.24351,-138.91153 -22.28033,-11.13228 -59.41039,-20.60638 -81.37808,-20.76441 l -6.5625,-0.0472 0,-12.5 0,-12.5 8.27708,0 c 20.02264,0 52.92452,7.15501 76.5806,16.65361 29.54355,11.86259 53.08051,27.5606 77.15151,51.45644 18.146,18.01383 26.8225,28.98745 38.6801,48.9209 18.7984,31.60127 31.8107,76.55112 31.8107,109.88702 l 0,9.33203 -12.5,0 -12.5,0 -0.023,-7.8125 z"
         style="fill:#ffa200;fill-opacity:1" />
      <ellipse
         ry="57.925983"
         rx="56.54776"
         cy="582.22223"
         cx="855.0451"
         id="path3406"
         style="opacity:1;fill:#ffffff;fill-opacity:1;stroke:none;stroke-width:1.46231949;stroke-linejoin:round;stroke-miterlimit:4;stroke-dasharray:none;stroke-dashoffset:0;stroke-opacity:1" />
    </g>
    <text
       xml:space="preserve"
       style="font-style:normal;font-variant:normal;font-weight:bold;font-stretch:normal;font-size:215px;line-height:125%;font-family:'Ubuntu Mono derivative Powerline';-inkscape-font-specification:'Ubuntu Mono derivative Powerline, Bold';text-align:start;letter-spacing:0px;word-spacing:0px;writing-mode:lr-tb;text-anchor:start;fill:#ffa200;fill-opacity:1;stroke:none;stroke-width:1px;stroke-linecap:butt;stroke-linejoin:miter;stroke-opacity:1"
       x="349.51279"
       y="-70.450912"
       id="text4304"
       sodipodi:linespacing="125%"
       inkscape:export-xdpi="193"
       inkscape:export-ydpi="193"><tspan
         sodipodi:role="line"
         id="tspan4308"
         x="349.51279"
         y="-70.450912">    Lab</tspan></text>
    <text
       xml:space="preserve"
       style="font-style:normal;font-variant:normal;font-weight:bold;font-stretch:normal;font-size:215px;line-height:125%;font-family:'Ubuntu Mono derivative Powerline';-inkscape-font-specification:'Ubuntu Mono derivative Powerline, Bold';text-align:start;letter-spacing:0px;word-spacing:0px;writing-mode:lr-tb;text-anchor:start;fill:#ffffff;fill-opacity:1;stroke:none;stroke-width:1px;stroke-linecap:butt;stroke-linejoin:miter;stroke-opacity:1;"
       x="350.50012"
       y="-70.450912"
       id="text4304-6"
       sodipodi:linespacing="125%"
       inkscape:export-xdpi="193"
       inkscape:export-ydpi="193"><tspan
         sodipodi:role="line"
         id="tspan4308-9"
         x="350.50012"
         y="-70.450912">Domo</tspan></text>
  </g>
</svg>
